<svg width="1440" height="382" viewBox="0 0 1440 382" fill="none" xmlns="http://www.w3.org/2000/svg">
<g clip-path="url(#clip0_1856_25410)">
<g opacity="0.6" filter="url(#filter0_f_1856_25410)">
<ellipse cx="723" cy="378.5" rx="669" ry="39.5" fill="#4AA064"/>
<ellipse cx="718.088" cy="374" rx="225.115" ry="35" fill="#B85042"/>
</g>
<path opacity="0.6" fill-rule="evenodd" clip-rule="evenodd" d="M702.393 242.803L760.046 213.153L699.038 185.104L641.385 214.754L702.393 242.803ZM703.302 243.221L760.955 213.571L821.963 241.62L764.31 271.27L703.302 243.221ZM761.844 213.113L822.852 241.162L883.083 210.186L883.991 210.604L823.761 241.58L884.769 269.629L945 238.653L945.909 239.07L885.678 270.047L886.555 270.45L885.666 270.908L884.789 270.504L827.136 300.155L828.013 300.558L827.124 301.016L826.247 300.612L768.594 330.263L769.472 330.666L768.582 331.124L767.705 330.72L710.052 360.371L710.929 360.774L710.04 361.232L709.163 360.828L708.363 361.24L707.455 360.822L708.254 360.411L647.245 332.361L646.446 332.773L645.537 332.355L646.337 331.944L585.328 303.895L584.529 304.306L583.621 303.888L584.42 303.477L523.412 275.428L522.612 275.839L521.703 275.421L522.503 275.01L461.495 246.961L460.695 247.372L459.787 246.954L460.586 246.543L458.8 245.722L459.689 245.265L461.475 246.086L519.128 216.435L517.342 215.614L518.231 215.156L520.017 215.978L577.67 186.327L575.884 185.506L576.773 185.049L578.559 185.87L636.212 156.219L634.426 155.398L635.315 154.94L637.101 155.762L697.332 124.785L698.241 125.203L638.01 156.179L699.018 184.229L759.249 153.252L760.157 153.67L699.927 184.646L760.935 212.695L821.166 181.719L822.075 182.137L761.844 213.113ZM462.384 246.504L523.392 274.553L581.045 244.902L520.037 216.853L462.384 246.504ZM524.301 274.97L585.309 303.02L642.962 273.369L581.954 245.32L524.301 274.97ZM586.218 303.437L647.226 331.486L704.879 301.836L643.871 273.786L586.218 303.437ZM648.135 331.904L709.143 359.953L766.796 330.303L705.788 302.253L648.135 331.904ZM822.872 242.037L883.88 270.087L826.227 299.737L765.219 271.688L822.872 242.037ZM764.329 272.145L825.338 300.195L767.686 329.845L706.677 301.796L764.329 272.145ZM520.926 216.395L581.934 244.445L639.587 214.794L578.579 186.745L520.926 216.395ZM582.843 244.862L643.851 272.911L701.504 243.261L640.496 215.212L582.843 244.862ZM644.76 273.329L705.768 301.378L763.421 271.728L702.413 243.679L644.76 273.329ZM640.476 214.337L698.129 184.686L637.121 156.637L579.468 186.287L640.476 214.337Z" fill="url(#paint0_radial_1856_25410)"/>
</g>
<defs>
<filter id="filter0_f_1856_25410" x="-130" y="155" width="1706" height="447" filterUnits="userSpaceOnUse" color-interpolation-filters="sRGB">
<feFlood flood-opacity="0" result="BackgroundImageFix"/>
<feBlend mode="normal" in="SourceGraphic" in2="BackgroundImageFix" result="shape"/>
<feGaussianBlur stdDeviation="92" result="effect1_foregroundBlur_1856_25410"/>
</filter>
<radialGradient id="paint0_radial_1856_25410" cx="0" cy="0" r="1" gradientUnits="userSpaceOnUse" gradientTransform="translate(702.393 242.803) rotate(152.783) scale(133.56 108.814)">
<stop stop-color="#34A853"/>
<stop offset="0.907542" stop-color="#34A853" stop-opacity="0"/>
</radialGradient>
<clipPath id="clip0_1856_25410">
<rect width="1440" height="382" fill="white"/>
</clipPath>
</defs>
</svg>
