<svg width="393" height="238" viewBox="0 0 393 238" fill="none" xmlns="http://www.w3.org/2000/svg">
<g opacity="0.6" filter="url(#filter0_f_1936_2313)">
<ellipse cx="207.5" cy="254.536" rx="196" ry="39.5" fill="#4AA064"/>
<ellipse cx="206.061" cy="250.036" rx="65.9529" ry="35" fill="#B85042"/>
</g>
<path opacity="0.6" fill-rule="evenodd" clip-rule="evenodd" d="M186.893 118.84L244.546 89.1889L183.537 61.1398L125.885 90.7905L186.893 118.84ZM187.802 119.257L245.454 89.6067L306.463 117.656L248.81 147.306L187.802 119.257ZM246.344 89.1493L307.352 117.198L367.583 86.2219L368.491 86.6396L308.261 117.616L369.269 145.665L429.5 114.689L430.408 115.107L370.178 146.083L371.055 146.486L370.166 146.944L369.288 146.54L311.636 176.191L312.513 176.595L311.624 177.052L310.746 176.648L253.094 206.299L253.971 206.702L253.082 207.16L252.205 206.756L194.552 236.407L195.429 236.811L194.54 237.268L193.662 236.865L192.863 237.276L191.954 236.858L192.754 236.447L131.745 208.398L130.946 208.809L130.037 208.391L130.837 207.98L69.8282 179.931L69.0289 180.342L68.1204 179.924L68.9197 179.513L7.9113 151.464L7.11173 151.875L6.20316 151.457L7.00272 151.046L-54.0057 122.997L-54.8051 123.408L-55.7136 122.99L-54.9143 122.579L-56.7005 121.758L-55.8112 121.301L-54.025 122.122L3.62797 92.4712L1.8418 91.65L2.73108 91.1926L4.51725 92.0138L62.1698 62.3632L60.3837 61.5421L61.273 61.0847L63.0591 61.9059L120.712 32.2552L118.926 31.434L119.815 30.9766L121.601 31.7979L181.832 0.821265L182.74 1.23899L122.51 32.2156L183.518 60.2647L243.749 29.2882L244.657 29.7059L184.427 60.6824L245.435 88.7316L305.666 57.755L306.574 58.1727L246.344 89.1493ZM-53.1164 122.54L7.89201 150.589L65.5449 120.938L4.53654 92.8889L-53.1164 122.54ZM8.80058 151.007L69.809 179.056L127.462 149.405L66.4535 121.356L8.80058 151.007ZM70.7175 179.473L131.726 207.523L189.379 177.872L128.37 149.823L70.7175 179.473ZM132.634 207.94L193.643 235.989L251.296 206.339L190.287 178.289L132.634 207.94ZM307.371 118.074L368.38 146.123L310.727 175.773L249.719 147.724L307.371 118.074ZM248.829 148.182L309.838 176.231L252.185 205.881L191.177 177.832L248.829 148.182ZM5.42583 92.4315L66.4342 120.481L124.087 90.8301L63.0783 62.781L5.42583 92.4315ZM67.3428 120.898L128.351 148.948L186.004 119.297L124.995 91.2478L67.3428 120.898ZM129.26 149.365L190.268 177.414L247.921 147.764L186.912 119.715L129.26 149.365ZM124.976 90.3727L182.629 60.7221L121.62 32.6729L63.9676 62.3236L124.976 90.3727Z" fill="url(#paint0_radial_1936_2313)"/>
<defs>
<filter id="filter0_f_1936_2313" x="-172.5" y="31.0361" width="760" height="447" filterUnits="userSpaceOnUse" color-interpolation-filters="sRGB">
<feFlood flood-opacity="0" result="BackgroundImageFix"/>
<feBlend mode="normal" in="SourceGraphic" in2="BackgroundImageFix" result="shape"/>
<feGaussianBlur stdDeviation="92" result="effect1_foregroundBlur_1936_2313"/>
</filter>
<radialGradient id="paint0_radial_1936_2313" cx="0" cy="0" r="1" gradientUnits="userSpaceOnUse" gradientTransform="translate(186.893 118.84) rotate(152.783) scale(133.56 108.814)">
<stop stop-color="#34A853"/>
<stop offset="0.907542" stop-color="#34A853" stop-opacity="0"/>
</radialGradient>
</defs>
</svg>
