<svg width="100" height="100" viewBox="0 0 100 100" fill="none" xmlns="http://www.w3.org/2000/svg">
<rect x="0.5" y="0.5" width="99" height="99" rx="23.5" fill="#FFEEEA"/>
<rect x="0.5" y="0.5" width="99" height="99" rx="23.5" stroke="white"/>
<g clip-path="url(#clip0_1851_13524)">
<path d="M61 48.625C62.6012 48.6238 64.1806 48.996 65.6127 49.7121C67.0448 50.4282 68.2903 51.4683 69.25 52.75" stroke="#A04A6E" stroke-width="2" stroke-linecap="round" stroke-linejoin="round"/>
<path d="M30.75 52.75C31.7097 51.4683 32.9552 50.4282 34.3873 49.7121C35.8194 48.996 37.3988 48.6238 39 48.625" stroke="#A04A6E" stroke-width="2" stroke-linecap="round" stroke-linejoin="round"/>
<path d="M50 59.625C53.797 59.625 56.875 56.547 56.875 52.75C56.875 48.953 53.797 45.875 50 45.875C46.203 45.875 43.125 48.953 43.125 52.75C43.125 56.547 46.203 59.625 50 59.625Z" stroke="#A04A6E" stroke-width="2" stroke-linecap="round" stroke-linejoin="round"/>
<path d="M40.375 65.125C41.3621 63.45 42.7692 62.0616 44.4572 61.097C46.1452 60.1324 48.0558 59.625 50 59.625C51.9442 59.625 53.8548 60.1324 55.5428 61.097C57.2308 62.0616 58.6379 63.45 59.625 65.125" stroke="#A04A6E" stroke-width="2" stroke-linecap="round" stroke-linejoin="round"/>
<path d="M55.6719 41.75C55.929 40.7541 56.4603 39.8503 57.2053 39.1411C57.9503 38.432 58.8793 37.946 59.8867 37.7383C60.8941 37.5306 61.9395 37.6096 62.9043 37.9662C63.869 38.3228 64.7144 38.9429 65.3445 39.7559C65.9746 40.5689 66.3641 41.5422 66.4687 42.5655C66.5733 43.5887 66.3889 44.6208 65.9365 45.5445C65.484 46.4682 64.7816 47.2465 63.909 47.791C63.0364 48.3355 62.0286 48.6245 61 48.625" stroke="#A04A6E" stroke-width="2" stroke-linecap="round" stroke-linejoin="round"/>
<path d="M38.9999 48.625C37.9713 48.6245 36.9635 48.3355 36.0909 47.791C35.2183 47.2465 34.5159 46.4682 34.0634 45.5445C33.611 44.6208 33.4266 43.5887 33.5312 42.5655C33.6359 41.5422 34.0253 40.5689 34.6554 39.7559C35.2855 38.9429 36.1309 38.3228 37.0957 37.9662C38.0604 37.6096 39.1058 37.5306 40.1132 37.7383C41.1206 37.946 42.0496 38.432 42.7946 39.1411C43.5396 39.8503 44.0709 40.7541 44.328 41.75" stroke="#A04A6E" stroke-width="2" stroke-linecap="round" stroke-linejoin="round"/>
</g>
<defs>
<clipPath id="clip0_1851_13524">
<rect width="44" height="44" fill="white" transform="translate(28 28)"/>
</clipPath>
</defs>
</svg>
