<svg width="489" height="239" viewBox="0 0 489 239" fill="none" xmlns="http://www.w3.org/2000/svg">
<path opacity="0.6" fill-rule="evenodd" clip-rule="evenodd" d="M244.393 119.803L302.046 90.1528L241.037 62.1037L183.385 91.7543L244.393 119.803ZM245.302 120.221L302.954 90.5705L363.963 118.62L306.31 148.27L245.302 120.221ZM303.844 90.1132L364.852 118.162L425.083 87.1858L425.991 87.6035L365.761 118.58L426.769 146.629L487 115.653L487.908 116.07L427.678 147.047L428.555 147.45L427.666 147.908L426.788 147.504L369.136 177.155L370.013 177.558L369.124 178.016L368.246 177.612L310.594 207.263L311.471 207.666L310.582 208.124L309.705 207.72L252.052 237.371L252.929 237.774L252.04 238.232L251.162 237.828L250.363 238.24L249.454 237.822L250.254 237.411L189.245 209.361L188.446 209.773L187.537 209.355L188.337 208.944L127.328 180.895L126.529 181.306L125.62 180.888L126.42 180.477L65.4113 152.428L64.6117 152.839L63.7032 152.421L64.5027 152.01L3.49432 123.961L2.69495 124.372L1.78637 123.954L2.58575 123.543L0.799525 122.722L1.68881 122.265L3.47503 123.086L61.128 93.435L59.3418 92.6138L60.2311 92.1565L62.0173 92.9777L119.67 63.3271L117.884 62.5059L118.773 62.0486L120.559 62.8698L178.212 33.2191L176.426 32.3978L177.315 31.9405L179.101 32.7617L239.332 1.78513L240.24 2.20286L180.01 33.1794L241.018 61.2286L301.249 30.2521L302.157 30.6698L241.927 61.6463L302.935 89.6954L363.166 58.7188L364.074 59.1366L303.844 90.1132ZM4.3836 123.504L65.392 151.553L123.045 121.902L62.0365 93.8528L4.3836 123.504ZM66.3006 151.97L127.309 180.02L184.962 150.369L123.954 122.32L66.3006 151.97ZM128.218 180.437L189.226 208.486L246.879 178.836L185.87 150.786L128.218 180.437ZM190.134 208.904L251.143 236.953L308.796 207.303L247.787 179.253L190.134 208.904ZM364.871 119.037L425.88 147.087L368.227 176.737L307.219 148.688L364.871 119.037ZM306.329 149.145L367.338 177.195L309.685 206.845L248.677 178.796L306.329 149.145ZM62.9258 93.3954L123.934 121.445L181.587 91.794L120.578 63.7448L62.9258 93.3954ZM124.843 121.862L185.851 149.911L243.504 120.261L182.495 92.2117L124.843 121.862ZM186.76 150.329L247.768 178.378L305.421 148.728L244.412 120.679L186.76 150.329ZM182.476 91.3366L240.129 61.6859L179.12 33.6368L121.468 63.2875L182.476 91.3366Z" fill="url(#paint0_radial_1718_30806)"/>
<defs>
<radialGradient id="paint0_radial_1718_30806" cx="0" cy="0" r="1" gradientUnits="userSpaceOnUse" gradientTransform="translate(244.393 119.803) rotate(152.783) scale(133.56 108.814)">
<stop stop-color="#34A853"/>
<stop offset="0.907542" stop-color="#34A853" stop-opacity="0"/>
</radialGradient>
</defs>
</svg>
