<svg width="100" height="100" viewBox="0 0 100 100" fill="none" xmlns="http://www.w3.org/2000/svg">
<rect x="0.5" y="0.5" width="99" height="99" rx="23.5" fill="#EBDFFF"/>
<rect x="0.5" y="0.5" width="99" height="99" rx="23.5" stroke="white"/>
<g clip-path="url(#clip0_1851_13517)">
<path d="M44.5 55.5H34.875C34.5103 55.5 34.1606 55.3551 33.9027 55.0973C33.6449 54.8394 33.5 54.4897 33.5 54.125V45.875C33.5 45.5103 33.6449 45.1606 33.9027 44.9027C34.1606 44.6449 34.5103 44.5 34.875 44.5H44.5V34.875C44.5 34.5103 44.6449 34.1606 44.9027 33.9027C45.1606 33.6449 45.5103 33.5 45.875 33.5H54.125C54.4897 33.5 54.8394 33.6449 55.0973 33.9027C55.3551 34.1606 55.5 34.5103 55.5 34.875V44.5H65.125C65.4897 44.5 65.8394 44.6449 66.0973 44.9027C66.3551 45.1606 66.5 45.5103 66.5 45.875V54.125C66.5 54.4897 66.3551 54.8394 66.0973 55.0973C65.8394 55.3551 65.4897 55.5 65.125 55.5H55.5V65.125C55.5 65.4897 55.3551 65.8394 55.0973 66.0973C54.8394 66.3551 54.4897 66.5 54.125 66.5H45.875C45.5103 66.5 45.1606 66.3551 44.9027 66.0973C44.6449 65.8394 44.5 65.4897 44.5 65.125V55.5Z" stroke="#844AA0" stroke-width="2" stroke-linecap="round" stroke-linejoin="round"/>
</g>
<defs>
<clipPath id="clip0_1851_13517">
<rect width="44" height="44" fill="white" transform="translate(28 28)"/>
</clipPath>
</defs>
</svg>
