<svg width="33" height="32" viewBox="0 0 33 32" fill="none" xmlns="http://www.w3.org/2000/svg">
<rect x="0.875" width="32" height="32" rx="8" fill="#E3F6E2"/>
<g clip-path="url(#clip0_1719_33596)">
<path d="M14.8755 16C14.8755 14.8955 15.7707 13.9998 16.8752 13.9998C17.9798 13.9998 18.8755 14.8955 18.8755 16C18.8755 17.1045 17.9798 18.0002 16.8752 18.0002C15.7707 18.0002 14.8755 17.1045 14.8755 16ZM13.7942 16C13.7942 17.7016 15.1736 19.0809 16.8752 19.0809C18.5769 19.0809 19.9563 17.7016 19.9563 16C19.9563 14.2984 18.5769 12.9191 16.8752 12.9191C15.1736 12.9191 13.7942 14.2984 13.7942 16ZM19.3582 12.7969C19.3581 13.1946 19.6803 13.517 20.078 13.5172C20.4756 13.5174 20.7981 13.1951 20.7983 12.7975C20.7985 12.3998 20.4762 12.0774 20.0786 12.0772C19.6811 12.0774 19.3586 12.3995 19.3582 12.7969ZM14.4511 20.8839C13.8661 20.8572 13.5482 20.7598 13.3369 20.6775C13.0567 20.5684 12.8569 20.4385 12.6467 20.2287C12.4366 20.0188 12.3065 19.8191 12.1979 19.539C12.1155 19.3278 12.0181 19.0097 11.9915 18.4248C11.9624 17.7923 11.9566 17.6023 11.9566 16C11.9566 14.3978 11.9629 14.2083 11.9915 13.5753C12.0181 12.9904 12.1163 12.6729 12.1979 12.4611C12.3069 12.181 12.4368 11.9811 12.6467 11.771C12.8566 11.5608 13.0563 11.4307 13.3369 11.3222C13.5481 11.2398 13.8661 11.1424 14.4511 11.1158C15.0836 11.0867 15.2736 11.0809 16.8752 11.0809C18.4769 11.0809 18.6671 11.0872 19.3001 11.1158C19.8851 11.1424 20.2025 11.2406 20.4143 11.3222C20.6945 11.4307 20.8943 11.5611 21.1045 11.771C21.3146 11.9808 21.4443 12.181 21.5533 12.4611C21.6357 12.6723 21.7331 12.9904 21.7597 13.5753C21.7888 14.2083 21.7946 14.3978 21.7946 16C21.7946 17.6023 21.7888 17.7918 21.7597 18.4248C21.7331 19.0097 21.6352 19.3277 21.5533 19.539C21.4443 19.8191 21.3144 20.019 21.1045 20.2287C20.8946 20.4383 20.6945 20.5684 20.4143 20.6775C20.2031 20.7598 19.8851 20.8573 19.3001 20.8839C18.6676 20.9129 18.4776 20.9188 16.8752 20.9188C15.2729 20.9188 15.0834 20.9129 14.4511 20.8839ZM14.4015 10.0363C13.7627 10.0654 13.3262 10.1667 12.945 10.315C12.5503 10.4682 12.2161 10.6737 11.8821 11.0071C11.5482 11.3405 11.3432 11.6752 11.19 12.07C11.0417 12.4514 10.9404 12.8876 10.9113 13.5263C10.8818 14.1661 10.875 14.3706 10.875 16C10.875 17.6294 10.8818 17.8339 10.9113 18.4737C10.9404 19.1125 11.0417 19.5486 11.19 19.93C11.3432 20.3246 11.5482 20.6596 11.8821 20.9929C12.216 21.3262 12.5503 21.5314 12.945 21.685C13.3269 21.8333 13.7627 21.9346 14.4015 21.9637C15.0416 21.9928 15.2458 22 16.8752 22C18.5047 22 18.7092 21.9932 19.349 21.9637C19.9878 21.9346 20.424 21.8333 20.8054 21.685C21.2 21.5314 21.5344 21.3263 21.8684 20.9929C22.2023 20.6595 22.4068 20.3246 22.5604 19.93C22.7088 19.5486 22.8105 19.1124 22.8391 18.4737C22.8682 17.8335 22.875 17.6294 22.875 16C22.875 14.3706 22.8682 14.1661 22.8391 13.5263C22.8101 12.8875 22.7088 12.4511 22.5604 12.07C22.4068 11.6754 22.2018 11.341 21.8684 11.0071C21.5349 10.6732 21.2 10.4682 20.8059 10.315C20.424 10.1667 19.9878 10.0649 19.3495 10.0363C18.7097 10.0072 18.5052 10 16.8757 10C15.2462 10 15.0416 10.0068 14.4015 10.0363Z" fill="#4AA064"/>
</g>
<defs>
<clipPath id="clip0_1719_33596">
<rect width="12" height="12" fill="white" transform="translate(10.875 10)"/>
</clipPath>
</defs>
</svg>
