<svg width="126" height="125" viewBox="0 0 126 125" fill="none" xmlns="http://www.w3.org/2000/svg">
<rect x="0.5" width="125" height="125" rx="24" fill="#B85042" fill-opacity="0.09"/>
<path d="M95.3536 92.4744C96.2163 90.2449 95.8449 86.6919 95.3536 85.2324C93.453 79.568 85.8633 76.0218 80.459 73.6461C78.3408 72.7179 72.4724 71.1445 71.7652 68.4747C70.6594 64.2561 74.8643 61.0406 76.7352 57.7188C78.7029 54.2159 80.346 49.4746 80.6664 45.5136C81.8182 31.2906 73.098 22.9708 60.5988 24.4107C51.508 25.457 46.0808 32.2324 45.4934 40.9576C44.8993 49.8495 48.1964 56.4174 51.701 61.2335C53.2352 63.3398 54.8443 64.6964 54.5978 67.2328C54.3054 70.235 51.1 71.0697 48.8042 71.9911C46.0833 73.0851 43.1551 74.7451 41.7687 75.511C37.0053 78.1443 31.7753 81.3105 30.5989 85.6464C27.9928 95.2573 36.7877 98.166 44.0459 99.5116C45.9422 99.8618 47.9159 100.103 49.9024 100.285C49.7936 99.5354 49.8658 98.7483 50.1344 97.9782L52.5807 90.9827L53.0967 89.5071C51.8829 89.4858 50.7736 88.9376 50.0418 87.9983C49.236 86.9622 48.9903 85.609 49.3507 84.1852L51.1145 77.2288C51.6738 75.0273 53.5438 73.55 55.7682 73.55C56.4856 73.55 57.1877 73.7064 57.8533 74.0133L61.0008 75.4659L63 76.389L64.9992 75.4659L68.1434 74.015C68.8106 73.7064 69.5136 73.55 70.2327 73.55C72.4257 73.55 74.339 75.0639 74.8839 77.2271L76.6485 84.1784C77.0106 85.6013 76.7666 86.9545 75.96 87.9915C75.229 88.9308 74.118 89.4824 72.9025 89.5037L73.4168 90.9784L75.8622 97.9722C76.1334 98.7474 76.2056 99.5379 76.0943 100.291C84.7634 99.5405 93.385 97.5795 95.3536 92.4744Z" fill="#B85042"/>
<path d="M71.483 100.75C72.4444 100.75 72.9739 100.007 72.6552 99.1001L70.208 92.1029L67.7626 85.1083C67.5322 84.4478 67.7065 84.0594 68.1476 84.0594C68.3134 84.0594 68.5199 84.1155 68.7554 84.2319L72.2123 85.9404C72.4427 86.0535 72.6484 86.1079 72.8209 86.1079C73.2961 86.1079 73.5256 85.7016 73.3522 85.0207L71.5876 78.0643C71.4116 77.3664 70.8617 76.95 70.2318 76.95C70.0176 76.95 69.7932 76.9984 69.5731 77.1013L66.4238 78.5539L63.2771 80.0066C63.1904 80.0465 63.1097 80.095 63.0315 80.1477L59.5779 78.5539L56.4304 77.1013C56.2068 76.9984 55.9824 76.95 55.7682 76.95C55.1375 76.95 54.5867 77.3664 54.4099 78.0626L52.647 85.0199C52.4745 85.7024 52.7023 86.1062 53.1766 86.1062C53.3491 86.1062 53.5548 86.0526 53.786 85.9395L57.2438 84.2302C57.4801 84.1138 57.6858 84.0577 57.8516 84.0577C58.2944 84.0577 58.4661 84.4461 58.2349 85.1066L55.7895 92.1012L53.344 99.0993C53.0278 100.007 53.5557 100.75 54.517 100.75H57.7547C58.716 100.75 59.6867 99.985 59.9128 99.0491L61.9086 90.7437L63 86.1971L64.0923 90.7446L66.0881 99.05C66.3142 99.985 67.2849 100.75 68.2454 100.75H71.483Z" fill="#B85042"/>
</svg>
