<svg width="33" height="32" viewBox="0 0 33 32" fill="none" xmlns="http://www.w3.org/2000/svg">
<rect x="0.875" width="32" height="32" rx="8" fill="#E3F6E2"/>
<path d="M13.365 11.25C13.365 11.94 12.81 12.5 12.125 12.5C11.44 12.5 10.885 11.94 10.885 11.25C10.885 10.56 11.44 10 12.125 10C12.81 10 13.365 10.56 13.365 11.25ZM13.375 13.5H10.875V21.5H13.375V13.5ZM17.366 13.5H14.882V21.5H17.367V17.3C17.367 14.965 20.381 14.774 20.381 17.3V21.5H22.875V16.434C22.875 12.494 18.414 12.638 17.366 14.578V13.5Z" fill="#4AA064"/>
</svg>
