<svg width="33" height="32" viewBox="0 0 33 32" fill="none" xmlns="http://www.w3.org/2000/svg">
<rect x="0.875" width="32" height="32" rx="8" fill="#E3F6E2"/>
<path d="M21.0806 11.8079C20.1478 11.1884 19.5826 10.1339 19.5826 9H17.2162L17.2116 18.649C17.1702 19.7642 16.2466 20.6363 15.1507 20.5918C14.0548 20.5498 13.1978 19.6099 13.2415 18.4947C13.2828 17.4075 14.1605 16.5494 15.2288 16.5494C15.4287 16.5494 15.6263 16.5822 15.8147 16.643V14.1834C15.6194 14.1553 15.4241 14.1413 15.2288 14.1389C12.8279 14.1389 10.875 16.1263 10.875 18.5695C10.8796 21.015 12.8256 22.9977 15.2311 23C17.632 23 19.5849 21.0127 19.5849 18.5695V13.6784C20.543 14.3798 21.6941 14.7585 22.875 14.7562V12.348C22.2363 12.3504 21.6137 12.161 21.0806 11.8079Z" fill="#4AA064"/>
</svg>
